<svg xmlns="http://www.w3.org/2000/svg" viewBox="0 0 109.5 124.5">
  <path fill="#95BF47" d="M95.9 23.9c-.1-.6-.6-1-1.1-1-.5 0-9.3-.2-9.3-.2s-7.4-7.2-8.1-7.9c-.7-.7-2.2-.5-2.7-.3 0 0-1.4.4-3.7 1.1-.4-1.3-1-2.8-1.8-4.4-2.6-5-6.5-7.7-11.1-7.7-.3 0-.6 0-1 .1-.1-.2-.3-.3-.4-.5-2-2.2-4.6-3.2-7.7-3.1-6 .2-12 4.5-16.8 12.2-3.4 5.4-6 12.2-6.7 17.5-6.9 2.1-11.7 3.6-11.8 3.7-3.5 1.1-3.6 1.2-4 4.5-.3 2.4-9.5 73.4-9.5 73.4L89 124l17.5-3.8S96 24.5 95.9 23.9zM67.2 16.8l-5.4 1.7c0-1.5-.2-3.4-.6-5.6 2.4.5 4.3 2.2 6 3.9zm-9.1-5.3c.5 2.6.7 5.7.6 8l-10.4 3.2c1-3.9 2.9-7.9 5.2-10.5 1-1.1 2.3-2.2 3.8-2.7.3.7.6 1.4.8 2zm-4.6-4.8c1.2 0 2.3.3 3.2 1-1.4.8-2.8 2-4.1 3.5-3 3.4-5.4 8.6-6.3 13.7l-8.6 2.7c1.7-8 8.3-20.6 15.8-20.9z"/>
  <path fill="#5E8E3E" d="M94.8 22.9c-.5 0-9.3-.2-9.3-.2s-7.4-7.2-8.1-7.9c-.3-.3-.6-.4-1-.4v109.6l24.1-5.2S96 24.5 95.9 23.9c-.1-.6-.6-1-1.1-1z"/>
  <path fill="#fff" d="M58 39.9l-3.8 14.4s-4.2-2-9.2-1.6c-7.3.5-7.4 5.1-7.3 6.2.4 6.5 17.4 7.9 18.4 23.1.7 12-6.4 20.2-16.6 20.9-12.3.8-19.1-6.5-19.1-6.5l2.6-11.1s6.8 5.2 12.3 4.8c3.6-.2 4.9-3.1 4.7-5.2-.5-8.5-14.3-8-15.2-21.8-.8-11.6 6.9-23.4 23.7-24.4 6.5-.5 9.5 1.2 9.5 1.2z"/>
</svg>
